<svg width="446" height="412" viewBox="0 0 446 412" fill="none" xmlns="http://www.w3.org/2000/svg">
<path d="M34.7167 361.25H414.298" stroke="#263238" stroke-linecap="round" stroke-linejoin="round"/>
<path d="M255.567 93.3509L254.907 88.135C254.907 88.135 257.583 83.5947 257.583 83.191C257.583 82.7872 256.637 78.247 255.585 76.9863C254.634 75.9378 253.56 74.9899 252.382 74.1599C251.214 73.1876 250.741 74.1599 251.098 75.2971C249.762 74.8804 248.38 74.604 246.977 74.4731C246.199 74.6685 245.448 74.945 244.738 75.2971C244.277 75.1886 243.804 75.1305 243.329 75.124C242.6 75.382 241.905 75.7165 241.259 76.1211C240.743 76.2509 240.237 76.4105 239.743 76.599C238.958 77.0027 237.959 78.9391 237.959 78.9391C237.959 78.9391 236.541 79.4995 236.309 79.9362C236.077 80.3729 233.954 83.1003 234.525 83.3228C235.809 83.8502 238.093 82.3423 238.093 82.3423C238.093 82.3423 241.473 82.6224 241.661 83.4382C241.848 84.2539 244.381 88.3822 246.058 89.0496V93.9359L255.567 93.3509Z" fill="white" stroke="#263238" stroke-linecap="round" stroke-linejoin="round"/>
<path d="M347.577 120.955L342.929 126.492L336.311 121.762L335.963 117.082L340.958 116.225L347.577 120.955Z" fill="#FF9900" stroke="#263238" stroke-linecap="round" stroke-linejoin="round"/>
<path d="M312.896 83.8749C312.896 83.8749 319.381 81.5841 324.492 85.1603C330.95 89.6923 338.897 102.613 331.217 125.594C331.217 125.594 322.931 117.939 299.159 125.594C299.159 125.594 292.835 122.669 291.604 105.876C290.961 97.0177 289.606 80.1257 312.896 83.8749Z" fill="#263238"/>
<path d="M335.963 117.074C335.963 117.074 329.897 117.519 327.284 108.249" stroke="#263238" stroke-linecap="round" stroke-linejoin="round"/>
<path d="M370.983 262.312L363.99 265.015L360.76 257.879L362.955 253.644L367.763 255.176L370.983 262.312Z" fill="#FF9900" stroke="#263238" stroke-linecap="round" stroke-linejoin="round"/>
<path d="M363.187 254.006C363.187 254.006 360.752 245.206 353.321 245.041" stroke="#263238" stroke-linecap="round" stroke-linejoin="round"/>
<path d="M298.526 113.901C303.414 114.346 303.093 103.346 298.856 102.621C294.101 101.805 291.497 113.275 298.526 113.901Z" fill="#FF9900" stroke="#263238" stroke-linecap="round" stroke-linejoin="round"/>
<path d="M300.247 99.704C293.566 99.1025 294.003 114.14 299.792 115.129C306.304 116.258 309.854 100.569 300.247 99.704Z" fill="#757575" stroke="#263238" stroke-linecap="round" stroke-linejoin="round"/>
<path d="M288.544 341.26L289.436 343.674C288.09 345.739 286.578 347.709 284.914 349.565C284.914 349.565 284.022 349.294 282.55 350.488C281.652 351.321 281.097 352.417 280.98 353.587C280.98 353.587 274.165 361.134 265.522 361.25C256.878 361.365 259.483 357.336 259.483 357.336L288.544 341.26Z" fill="#FF9900" stroke="#263238" stroke-linecap="round" stroke-linejoin="round"/>
<path d="M280.427 322.044C280.427 322.044 268.831 318.097 266.556 325.999C266.556 325.999 268.626 334.692 267.386 339.438C266.146 344.185 259.902 353.273 259.518 355.004C258.769 358.374 259.331 358.605 259.331 358.605C259.331 358.605 263.88 361.027 269.973 358.432C276.065 355.836 286.635 344.671 288.285 342.372C289.936 340.073 283.112 330.976 283.112 330.976L280.427 322.044Z" fill="white"/>
<mask id="mask0_35_2550" style="mask-type:luminance" maskUnits="userSpaceOnUse" x="259" y="321" width="30" height="39">
<path d="M280.427 322.044C280.427 322.044 268.831 318.097 266.556 325.999C266.556 325.999 268.626 334.692 267.386 339.438C266.146 344.185 259.902 353.273 259.518 355.004C258.769 358.374 259.331 358.605 259.331 358.605C259.331 358.605 263.88 361.027 269.973 358.432C276.065 355.836 286.635 344.671 288.285 342.372C289.936 340.073 283.112 330.976 283.112 330.976L280.427 322.044Z" fill="white"/>
</mask>
<g mask="url(#mask0_35_2550)">
<path opacity="0.7" d="M280.427 322.044C280.427 322.044 268.831 318.097 266.556 325.999C266.556 325.999 268.626 334.692 267.386 339.438C266.146 344.185 259.902 353.273 259.518 355.004C258.769 358.374 259.331 358.605 259.331 358.605C259.331 358.605 263.88 361.027 269.973 358.432C276.065 355.836 286.635 344.671 288.285 342.372C289.936 340.073 283.112 330.976 283.112 330.976L280.427 322.044Z" fill="black"/>
</g>
<path d="M280.427 322.044C280.427 322.044 268.831 318.097 266.556 325.999C266.556 325.999 268.626 334.692 267.386 339.438C266.146 344.185 259.902 353.273 259.518 355.004C258.769 358.374 259.331 358.605 259.331 358.605C259.331 358.605 263.88 361.027 269.973 358.432C276.065 355.836 286.635 344.671 288.285 342.372C289.936 340.073 283.112 330.976 283.112 330.976L280.427 322.044Z" stroke="#263238" stroke-linecap="round" stroke-linejoin="round"/>
<path d="M274.486 333.209C275.495 338.53 274.47 344.009 271.587 348.709C271.587 348.709 268.724 351.181 269.937 352.639" stroke="#263238" stroke-linecap="round" stroke-linejoin="round"/>
<path d="M273.228 347.629C273.228 347.629 267.163 347.959 263.996 346.805" stroke="#263238" stroke-linecap="round" stroke-linejoin="round"/>
<path d="M274.352 344.531C274.352 344.531 268.679 345.355 265.513 343.707" stroke="#263238" stroke-linecap="round" stroke-linejoin="round"/>
<path d="M275.316 341.136C275.316 341.136 270.347 341.803 267.109 340.378" stroke="#263238" stroke-linecap="round" stroke-linejoin="round"/>
<path d="M275.869 337.205C275.869 337.205 270.338 338.812 267.725 337.205" stroke="#263238" stroke-linecap="round" stroke-linejoin="round"/>
<path d="M324.037 185.87C324.037 185.87 334.741 214.652 330.004 233.513C325.268 252.375 323.76 260.112 324.037 270.363C324.313 280.613 312.753 333.901 312.753 333.901H302.174C302.174 333.901 303.744 287.757 303.663 276.576C303.583 265.394 305.849 268.451 303.075 257.624C300.301 246.796 302.361 235.895 298.508 224.161C298.508 224.161 277.715 257.195 273.951 261.974C273.951 261.974 278.134 276.485 277.662 288.82C277.118 303.265 278.491 325.01 278.491 325.01C278.491 325.01 276.136 329.089 269.669 327.482C269.669 327.482 252.775 263.12 253.72 259.914C254.666 256.709 261.249 221.895 279.321 198.782C279.321 198.782 282.416 188.943 284.539 182.648L324.037 185.87Z" fill="#263238"/>
<path d="M315.411 332.723C315.411 332.723 310.469 329.427 300.247 330.119C300.247 330.119 299.507 341.449 298.115 344.745C296.724 348.041 289.383 353.751 288.027 354.724C286.671 355.696 286.662 359.132 286.662 359.132H317.713C317.319 354.227 316.493 349.361 315.242 344.58L315.411 332.723Z" fill="white"/>
<mask id="mask1_35_2550" style="mask-type:luminance" maskUnits="userSpaceOnUse" x="286" y="330" width="32" height="30">
<path d="M315.411 332.723C315.411 332.723 310.469 329.427 300.247 330.119C300.247 330.119 299.507 341.449 298.115 344.745C296.724 348.041 289.383 353.751 288.027 354.724C286.671 355.696 286.662 359.132 286.662 359.132H317.713C317.319 354.227 316.493 349.361 315.242 344.58L315.411 332.723Z" fill="white"/>
</mask>
<g mask="url(#mask1_35_2550)">
<path opacity="0.7" d="M315.411 332.723C315.411 332.723 310.469 329.427 300.247 330.119C300.247 330.119 299.507 341.449 298.115 344.745C296.724 348.041 289.383 353.751 288.027 354.724C286.671 355.696 286.662 359.132 286.662 359.132H317.713C317.319 354.227 316.493 349.361 315.242 344.58L315.411 332.723Z" fill="black"/>
</g>
<path d="M315.411 332.723C315.411 332.723 310.469 329.427 300.247 330.119C300.247 330.119 299.507 341.449 298.115 344.745C296.724 348.041 289.383 353.751 288.027 354.724C286.671 355.696 286.662 359.132 286.662 359.132H317.713C317.319 354.227 316.493 349.361 315.242 344.58L315.411 332.723Z" stroke="#263238" stroke-linecap="round" stroke-linejoin="round"/>
<path d="M309.007 334.19C309.007 334.19 308.266 344.622 306.518 347.374C305.576 348.884 304.418 350.27 303.075 351.494C303.075 351.494 300.952 351.494 303.075 354.13" stroke="#263238" stroke-linecap="round" stroke-linejoin="round"/>
<path d="M305.448 350.488C305.448 350.488 298.82 346.978 294.101 349.664" stroke="#263238" stroke-linecap="round" stroke-linejoin="round"/>
<path d="M307.044 348.107C307.044 348.107 302.415 344.811 296.965 346.599" stroke="#263238" stroke-linecap="round" stroke-linejoin="round"/>
<path d="M309.007 344.432C309.007 344.432 304.029 340.864 298.784 343.138" stroke="#263238" stroke-linecap="round" stroke-linejoin="round"/>
<path d="M309.676 339.925C309.676 339.925 303.646 336.934 299.248 339.208" stroke="#263238" stroke-linecap="round" stroke-linejoin="round"/>
<path d="M317.704 359.132V361.25H314.136C313.219 360.788 312.191 360.546 311.147 360.546C310.103 360.546 309.076 360.788 308.159 361.25H291.416C289.646 361.243 287.899 360.88 286.296 360.187L286.653 359.132H317.704Z" fill="#FF9900" stroke="#263238" stroke-linecap="round" stroke-linejoin="round"/>
<path d="M341.431 134.246C338.078 132.185 334.384 130.64 330.495 129.673C330.495 129.673 328.39 127.769 327.284 129.261C322.824 135.21 299.123 126.69 299.123 126.69C299.123 126.69 297.812 125.33 294.449 125.388C292.149 123.625 289.312 122.568 286.332 122.364C281.39 122.034 264.219 124.984 262.105 123.74C259.991 122.496 255.754 91.2085 255.754 91.2085H245.532V95.2543C245.532 95.2543 240.947 105.225 241.304 119.562C241.661 133.9 227.567 139.454 269.91 152.522C269.91 152.522 268.501 175.99 273.086 186.422C273.086 186.422 307.089 202.193 328.729 202.292C328.729 202.292 333.546 205.217 327.23 191.852L334.5 182.615C334.5 182.615 344.731 199.095 351.787 194.546C358.843 189.998 353.232 141.135 341.431 134.246Z" fill="#FF9900"/>
<mask id="mask2_35_2550" style="mask-type:luminance" maskUnits="userSpaceOnUse" x="239" y="91" width="116" height="112">
<path d="M341.431 134.246C338.078 132.185 334.384 130.64 330.495 129.673C330.495 129.673 328.39 127.769 327.284 129.261C322.824 135.21 299.123 126.69 299.123 126.69C299.123 126.69 297.812 125.33 294.449 125.388C292.149 123.625 289.312 122.568 286.332 122.364C281.39 122.034 264.219 124.984 262.105 123.74C259.991 122.496 255.754 91.2085 255.754 91.2085H245.532V95.2543C245.532 95.2543 240.947 105.225 241.304 119.562C241.661 133.9 227.567 139.454 269.91 152.522C269.91 152.522 268.501 175.99 273.086 186.422C273.086 186.422 307.089 202.193 328.729 202.292C328.729 202.292 333.546 205.217 327.23 191.852L334.5 182.615C334.5 182.615 344.731 199.095 351.787 194.546C358.843 189.998 353.232 141.135 341.431 134.246Z" fill="white"/>
</mask>
<g mask="url(#mask2_35_2550)">
<path opacity="0.2" d="M269.785 155.48C269.839 153.61 269.91 152.489 269.91 152.489C227.567 139.445 241.651 133.908 241.303 119.529C240.956 105.151 245.532 95.2213 245.532 95.2213V91.1672H255.772C255.772 91.1672 260 122.479 262.123 123.707C266.886 130.472 258.153 138.415 261.231 139.693C264.308 140.97 271.774 134.749 271.774 134.749C272.568 141.713 271.892 148.754 269.785 155.48Z" fill="black" fill-opacity="0.7"/>
<path opacity="0.2" d="M349.896 174.63C349.896 174.63 347.88 188.152 346.818 194.909C340.744 192.676 334.5 182.606 334.5 182.606L327.239 191.811C333.554 205.176 328.738 202.259 328.738 202.259C307.098 202.16 273.095 186.389 273.095 186.389C272.359 184.635 271.801 182.823 271.427 180.975C293.602 197.348 322.271 199.251 324.822 199.391C320.478 199.119 305.769 194.95 304.029 191.811C302.29 188.671 318.301 191.58 322.503 190.929C326.704 190.278 331.235 177.745 331.235 177.745C328.095 177.745 324.144 167.313 324.51 166.019C324.875 164.726 330.281 165.014 330.281 165.014C330.281 165.014 327.328 162.418 328.149 159.024C328.97 155.629 327.498 150.52 330.415 151.171C333.331 151.822 332.618 156.354 332.618 156.354L349.896 174.63Z" fill="black" fill-opacity="0.7"/>
</g>
<path d="M341.431 134.246C338.078 132.185 334.384 130.64 330.495 129.673C330.495 129.673 328.39 127.769 327.284 129.261C322.824 135.21 299.123 126.69 299.123 126.69C299.123 126.69 297.812 125.33 294.449 125.388C292.149 123.625 289.312 122.568 286.332 122.364C281.39 122.034 264.219 124.984 262.105 123.74C259.991 122.496 255.754 91.2085 255.754 91.2085H245.532V95.2543C245.532 95.2543 240.947 105.225 241.304 119.562C241.661 133.9 227.567 139.454 269.91 152.522C269.91 152.522 268.501 175.99 273.086 186.422C273.086 186.422 307.089 202.193 328.729 202.292C328.729 202.292 333.546 205.217 327.23 191.852L334.5 182.615C334.5 182.615 344.731 199.095 351.787 194.546C358.843 189.998 353.232 141.135 341.431 134.246Z" stroke="#263238" stroke-linecap="round" stroke-linejoin="round"/>
<path d="M307.124 139.693C317.409 140.451 327.284 129.261 327.284 129.261C327.284 129.261 321.709 129.047 321.04 126.69C318.792 119.274 324.34 109.452 324.34 109.452C324.34 109.452 299.748 111.924 304.511 116.761C305.395 117.642 306.142 118.632 306.732 119.702C308.516 122.998 307.713 125.619 306.973 126.294C306.921 126.341 306.864 126.382 306.803 126.418C305.367 127.16 299.159 126.682 299.159 126.682C299.159 126.682 297.741 139.001 307.124 139.693Z" fill="white" stroke="#263238" stroke-linecap="round" stroke-linejoin="round"/>
<path d="M324.046 132.392C320.436 133.825 316.539 134.536 312.61 134.477L309.649 136.125" stroke="#263238" stroke-linecap="round" stroke-linejoin="round"/>
<path d="M306.554 136.108L306.161 134.246C306.161 134.246 300.979 133.167 299.168 130.505" stroke="#263238" stroke-linecap="round" stroke-linejoin="round"/>
<path d="M306.937 126.303C314.644 127.555 317.4 118.343 317.4 118.343C317.4 118.343 311.219 117.14 306.696 119.702C308.489 122.982 307.678 125.619 306.937 126.303Z" fill="#263238"/>
<path d="M306.67 85.9019C289.9 88.1679 297.981 111.059 299.712 116.736C300.354 118.837 307.428 124.976 310.594 124.432C313.065 123.995 321.86 117.132 322.315 114.297C323.519 106.733 325.58 83.3311 306.67 85.9019Z" fill="white" stroke="#263238" stroke-linecap="round" stroke-linejoin="round"/>
<path d="M304.368 102.58C304.368 103.651 305.332 106.7 303.057 108.85C301.585 110.235 305.332 110.853 305.332 110.853" stroke="#263238" stroke-linecap="round" stroke-linejoin="round"/>
<path d="M303.61 97.7841C302.507 97.8025 301.422 98.0516 300.438 98.5125C299.454 98.9735 298.596 99.6344 297.928 100.446" stroke="#263238" stroke-linecap="round" stroke-linejoin="round"/>
<path d="M309.399 97.5533C311.55 97.2913 313.737 97.4427 315.821 97.9983" stroke="#263238" stroke-linecap="round" stroke-linejoin="round"/>
<path d="M300.425 105.109C300.559 105.736 301.059 106.181 301.558 106.09C302.058 105.999 302.343 105.422 302.218 104.788C302.094 104.154 301.576 103.717 301.086 103.807C300.595 103.898 300.292 104.475 300.425 105.109Z" fill="#263238"/>
<path d="M311.308 103.89C311.433 104.524 311.941 104.969 312.441 104.879C312.71 104.781 312.928 104.591 313.049 104.348C313.17 104.106 313.186 103.829 313.092 103.577C312.967 102.942 312.459 102.506 311.959 102.588C311.692 102.688 311.475 102.878 311.354 103.12C311.233 103.362 311.217 103.637 311.308 103.89Z" fill="#263238"/>
<path d="M305.332 115.055C308.055 114.498 310.618 113.411 312.851 111.866C312.851 111.866 313.52 115.83 309.97 116.934C307.249 117.758 305.92 114.931 305.92 114.931" stroke="#263238" stroke-linecap="round" stroke-linejoin="round"/>
<path d="M312.896 89.0825C312.896 89.0825 312.896 100.445 324.046 103.733L328.14 92.5104L308.025 83.0591C286.671 83.1497 281.997 107.441 293.379 121.359C293.379 121.359 290.792 90.2279 312.896 89.0825Z" fill="#263238"/>
<path d="M321.727 104.392C321.468 103.132 324.652 99.6462 326.008 101.624C328.327 105.01 327.141 108.216 325.17 109.559C324.278 110.169 323.207 111.273 322.297 110.383" fill="white"/>
<path d="M321.727 104.392C321.468 103.132 324.652 99.6462 326.008 101.624C328.327 105.01 327.141 108.216 325.17 109.559C324.278 110.169 323.207 111.273 322.297 110.383" stroke="#263238" stroke-linecap="round" stroke-linejoin="round"/>
<path d="M324.501 97.4297C317.811 96.8282 318.257 111.866 324.046 112.855C330.548 113.976 334.099 98.2866 324.501 97.4297Z" fill="#757575" stroke="#263238" stroke-linecap="round" stroke-linejoin="round"/>
<path d="M325 101.113C325 101.113 324.108 83.6688 303.592 83.8913C303.592 83.8913 306.687 81.6665 312.592 83.0673C318.497 84.4681 328.122 88.6128 328.122 101.121L325 101.113Z" fill="#FF9900" stroke="#263238" stroke-linecap="round" stroke-linejoin="round"/>
<path d="M326.079 99.5062C321.2 99.0695 321.521 110.062 325.749 110.795C330.513 111.611 333.108 100.132 326.079 99.5062Z" fill="#FF9900" stroke="#263238" stroke-linecap="round" stroke-linejoin="round"/>
<g opacity="0.2">
<path d="M299.373 197.579C299.373 197.579 295.653 209.617 298.294 219.069" stroke="white" stroke-linecap="round" stroke-linejoin="round"/>
<path d="M297.107 221.656C297.107 221.656 289.847 216.926 286.671 216.44" stroke="white" stroke-linecap="round" stroke-linejoin="round"/>
<path d="M302.022 223.798C302.022 223.798 288.259 222.002 284.557 223.798" stroke="white" stroke-linecap="round" stroke-linejoin="round"/>
<path d="M299.373 221.656C299.373 221.656 305.974 218.887 309.649 218.236" stroke="white" stroke-linecap="round" stroke-linejoin="round"/>
<path d="M295.85 197.076C295.85 197.076 292.371 204.261 297.107 206.61" stroke="white" stroke-linecap="round" stroke-linejoin="round"/>
<path d="M267.725 259.329C267.538 259.98 272.256 261.941 272.256 261.941C272.256 261.941 270.365 266.498 267.725 267.157" stroke="white" stroke-linecap="round" stroke-linejoin="round"/>
<path d="M319.006 267.157C317.079 271.936 311.87 275.397 311.87 275.397" stroke="white" stroke-linecap="round" stroke-linejoin="round"/>
<path d="M264.621 298.881C264.621 298.881 271.186 305.399 272.256 307.789" stroke="white" stroke-linecap="round" stroke-linejoin="round"/>
</g>
<path d="M348.888 213.531L352.884 244.341C352.938 244.743 352.856 245.151 352.65 245.509C352.444 245.867 352.124 246.158 351.733 246.343L319.336 261.801C319.083 261.917 318.804 261.976 318.521 261.973C318.239 261.97 317.961 261.905 317.712 261.784C317.462 261.662 317.246 261.488 317.084 261.274C316.921 261.061 316.816 260.815 316.776 260.557L312.316 229.08C312.259 228.667 312.344 228.247 312.558 227.881C312.773 227.514 313.106 227.219 313.511 227.037L346.355 212.254C346.609 212.143 346.888 212.088 347.17 212.096C347.451 212.103 347.726 212.172 347.973 212.297C348.22 212.421 348.432 212.598 348.591 212.813C348.75 213.027 348.852 213.273 348.888 213.531Z" fill="#BFBFBF" stroke="#263238" stroke-linecap="round" stroke-linejoin="round"/>
<path d="M350.672 214.512L354.668 245.313C354.721 245.716 354.639 246.125 354.433 246.485C354.228 246.844 353.908 247.137 353.517 247.324L321.12 262.774C320.868 262.89 320.589 262.949 320.307 262.946C320.026 262.944 319.748 262.879 319.499 262.759C319.249 262.638 319.034 262.465 318.87 262.252C318.707 262.04 318.601 261.795 318.56 261.538L314.1 230.052C314.041 229.64 314.124 229.221 314.337 228.854C314.55 228.488 314.882 228.192 315.286 228.009L348.13 213.235C348.384 213.122 348.665 213.066 348.947 213.073C349.23 213.079 349.506 213.148 349.755 213.272C350.003 213.397 350.215 213.575 350.375 213.79C350.534 214.006 350.636 214.253 350.672 214.512Z" fill="#BFBFBF" stroke="#263238" stroke-linecap="round" stroke-linejoin="round"/>
<path d="M333.929 234.964C333.927 234.651 333.897 234.34 333.84 234.032C334.029 233.845 334.256 233.694 334.509 233.588C334.762 233.482 335.034 233.423 335.312 233.414C336.81 233.414 337.988 235.128 337.988 237.246C337.988 239.364 336.783 241.078 335.312 241.078C334.045 241.078 332.992 239.842 332.698 238.177C333.539 237.291 333.98 236.141 333.929 234.964Z" fill="#FF9900" stroke="#263238" stroke-linecap="round" stroke-linejoin="round"/>
<path d="M339.665 205.217L342.956 241.078C342.956 241.078 341.074 245.857 339.665 247.381C338.255 248.906 335.704 256.742 334.393 258.258C333.082 259.774 335.098 260.203 338.674 255.638C339.835 256.773 340.875 258.009 341.779 259.329C342.483 260.631 344.365 257.376 346.016 256.94C347.666 256.503 350.957 255.415 350.957 253.899C350.957 252.383 353.098 251.345 353.312 249.334C353.526 247.324 351.189 239.776 351.189 239.776L352.135 206.61L339.665 205.217Z" fill="white" stroke="#263238" stroke-linecap="round" stroke-linejoin="round"/>
<path d="M354.668 174.556C355.881 185.268 354.882 198.263 354.882 198.263L352.822 214.916C352.822 214.916 353.847 218.162 353.071 219.036C350.485 222.084 344.838 218.442 340.369 215.402C335.9 212.361 338.585 210.4 338.585 210.4C338.585 210.4 337.783 204.097 336.23 200.191C334.678 196.285 332.743 173.304 332.609 169.324C332.609 169.324 331.967 162.806 330.406 161.084C328.845 159.362 341.315 146.309 345.079 145.873" fill="#FF9900"/>
<path d="M354.668 174.556C355.881 185.268 354.882 198.263 354.882 198.263L352.822 214.916C352.822 214.916 353.847 218.162 353.071 219.036C350.485 222.084 344.838 218.442 340.369 215.402C335.9 212.361 338.585 210.4 338.585 210.4C338.585 210.4 337.783 204.097 336.23 200.191C334.678 196.285 332.743 173.304 332.609 169.324C332.609 169.324 331.967 162.806 330.406 161.084C328.845 159.362 341.315 146.309 345.079 145.873" stroke="#263238" stroke-linecap="round" stroke-linejoin="round"/>
<path d="M270.972 129.154C270.972 129.154 273.844 141.728 269.91 152.489" stroke="#263238" stroke-linecap="round" stroke-linejoin="round"/>
<path d="M327.23 191.819C321.726 194.141 315.546 194.72 309.649 193.467" stroke="#263238" stroke-linecap="round" stroke-linejoin="round"/>
<path d="M294.449 125.388C294.449 125.388 295.118 141.992 307.749 142.964" stroke="#263238" stroke-linecap="round" stroke-linejoin="round"/>
<path d="M262.123 123.74C262.123 123.74 263.211 128.816 259.679 130.505C256.147 132.194 259.679 127.127 259.679 127.127" stroke="#263238" stroke-linecap="round" stroke-linejoin="round"/>
<path d="M338.585 210.433C338.585 210.433 344.669 214.504 348.888 213.531" stroke="#263238" stroke-linecap="round" stroke-linejoin="round"/>
<path d="M245.532 95.2544C245.532 95.2544 251.919 97.8335 253.676 97.4133" stroke="#263238" stroke-linecap="round" stroke-linejoin="round"/>
<path d="M289.151 164.8L290.935 160.622L292.38 160.935L290.819 167.041L289.837 166.827L290.952 162.451L289.168 166.679L288.187 166.464L288.535 161.982L287.429 166.291L286.537 166.094L288.089 159.996L289.534 160.309L289.151 164.8Z" fill="#263238"/>
<path d="M292.71 162.517C292.742 162.312 292.82 162.114 292.94 161.938C293.059 161.762 293.216 161.61 293.402 161.493C293.588 161.376 293.799 161.296 294.02 161.258C294.241 161.22 294.469 161.225 294.688 161.273C294.907 161.32 295.113 161.41 295.293 161.535C295.473 161.66 295.622 161.818 295.732 161.999C295.842 162.181 295.91 162.381 295.932 162.588C295.954 162.795 295.929 163.004 295.858 163.201L295.047 166.374C295.014 166.58 294.936 166.777 294.817 166.953C294.698 167.129 294.54 167.281 294.354 167.398C294.168 167.515 293.958 167.595 293.736 167.633C293.515 167.671 293.288 167.666 293.069 167.618C292.849 167.571 292.643 167.482 292.464 167.357C292.284 167.232 292.134 167.073 292.024 166.892C291.914 166.711 291.846 166.51 291.824 166.303C291.803 166.096 291.828 165.887 291.898 165.69L292.71 162.517ZM292.924 165.97C292.808 166.407 292.977 166.621 293.307 166.695C293.637 166.769 293.887 166.646 293.994 166.209L294.886 162.913C294.993 162.476 294.824 162.27 294.494 162.196C294.164 162.122 293.923 162.246 293.807 162.682L292.924 165.97Z" fill="#263238"/>
<path d="M297.42 163.77L296.296 168.195L295.359 167.989L296.92 161.891L298.222 162.171L298.338 166.052L299.23 162.402L300.122 162.608L298.561 168.706L297.5 168.475L297.42 163.77Z" fill="#263238"/>
<path d="M300.925 162.765L302.566 163.119C302.789 163.144 303.002 163.216 303.189 163.33C303.377 163.443 303.533 163.596 303.646 163.774C303.759 163.953 303.826 164.153 303.841 164.36C303.857 164.566 303.82 164.773 303.735 164.965L302.941 168.046C302.925 168.252 302.857 168.451 302.744 168.628C302.632 168.806 302.476 168.957 302.29 169.07C302.104 169.183 301.892 169.255 301.671 169.281C301.449 169.306 301.225 169.284 301.014 169.217L299.373 168.862L300.925 162.765ZM301.746 163.861L300.604 168.211L301.193 168.343C301.523 168.417 301.755 168.302 301.871 167.865L302.682 164.693C302.789 164.256 302.629 164.058 302.299 163.984L301.746 163.861Z" fill="#263238"/>
<path d="M306.571 170.428L305.519 170.197L305.626 169.052L304.35 168.772L303.886 169.843L302.932 169.637L305.546 163.77L307.071 164.099L306.571 170.428ZM304.689 167.956L305.697 168.17L305.992 164.981L304.689 167.956Z" fill="#263238"/>
<path d="M308.079 168.623L307.802 164.256L308.891 164.495L308.962 167.445L310.452 164.841L311.442 165.055L309.096 168.846L308.578 170.873L307.544 170.642L308.079 168.623Z" fill="#263238"/>
<path d="M294.984 151.781L296.028 152.003L294.467 158.101L293.468 157.878L294.984 151.781Z" fill="#263238"/>
<path d="M305.43 153.8C304.939 153.537 304.366 153.435 303.805 153.51C303.243 153.584 302.725 153.832 302.334 154.212C302.157 153.715 301.801 153.289 301.326 153.004C300.85 152.72 300.284 152.593 299.721 152.646C297.937 152.778 296.929 154.599 297.892 156.651C298.564 157.905 299.53 159.006 300.72 159.872L300.952 160.045L301.237 159.98C302.711 159.653 304.089 159.029 305.269 158.15C307.071 156.659 306.964 154.607 305.43 153.8Z" fill="#263238"/>
<path d="M251.098 75.2559C251.919 76.7308 252.882 78.7908 252.507 79.4418C252.133 80.0927 249.448 83.4794 250.384 85.5394" stroke="#263238" stroke-linecap="round" stroke-linejoin="round"/>
<path d="M237.923 78.8979L236.978 81.3699C237.359 81.5811 237.811 81.6533 238.247 81.5725C238.682 81.4917 239.069 81.2638 239.333 80.9332C240.385 79.7384 242.508 80.2411 242.508 80.2411" stroke="#263238" stroke-linecap="round" stroke-linejoin="round"/>
<path d="M244.738 75.2559C244.738 75.2559 240.599 77.7279 245.532 77.1593C248.484 76.8462 249.653 77.6784 249.608 77.8515" stroke="#263238" stroke-linecap="round" stroke-linejoin="round"/>
<path d="M241.259 76.0798C241.259 76.0798 239.475 77.3982 240.51 78.1728C241.545 78.9474 243.703 78.6342 244.122 78.593C245.054 78.5959 245.972 78.805 246.798 79.2028" stroke="#263238" stroke-linecap="round" stroke-linejoin="round"/>
<path d="M243.739 71.2019H99.2796C94.7177 71.2019 91.0197 74.6181 91.0197 78.8321V353.62C91.0197 357.834 94.7177 361.25 99.2796 361.25H243.739C248.301 361.25 251.999 357.834 251.999 353.62V78.8321C251.999 74.6181 248.301 71.2019 243.739 71.2019Z" fill="white" stroke="#263238" stroke-linecap="round" stroke-linejoin="round"/>
<path d="M159.061 78.4448C159.063 78.8559 158.933 79.2581 158.687 79.6007C158.441 79.9433 158.091 80.2107 157.68 80.3691C157.269 80.5275 156.817 80.5698 156.381 80.4906C155.944 80.4115 155.543 80.2143 155.227 79.9243C154.912 79.6342 154.697 79.2642 154.61 78.8612C154.522 78.4582 154.566 78.0403 154.736 77.6603C154.906 77.2804 155.194 76.9556 155.564 76.7271C155.934 76.4986 156.369 76.3766 156.814 76.3766C157.408 76.3766 157.979 76.5942 158.4 76.9819C158.821 77.3695 159.059 77.8955 159.061 78.4448Z" fill="#FF9900" stroke="#263238" stroke-linecap="round" stroke-linejoin="round"/>
<path d="M188.444 78.4448C188.446 78.7026 188.365 78.9552 188.211 79.1703C188.057 79.3855 187.837 79.5537 187.58 79.6535C187.323 79.7533 187.039 79.7802 186.765 79.7309C186.491 79.6816 186.239 79.5583 186.041 79.3766C185.843 79.1948 185.708 78.9629 185.653 78.7101C185.598 78.4573 185.625 78.1951 185.732 77.9567C185.838 77.7184 186.019 77.5145 186.251 77.3711C186.483 77.2277 186.755 77.1511 187.035 77.1511C187.407 77.1511 187.764 77.2872 188.028 77.5295C188.292 77.7719 188.442 78.1009 188.444 78.4448Z" fill="#FF9900" stroke="#263238" stroke-linecap="round" stroke-linejoin="round"/>
<path d="M180.576 77.7115H163.468C163.103 77.7115 162.808 77.9846 162.808 78.3213V78.5685C162.808 78.9053 163.103 79.1783 163.468 79.1783H180.576C180.941 79.1783 181.237 78.9053 181.237 78.5685V78.3213C181.237 77.9846 180.941 77.7115 180.576 77.7115Z" fill="#FF9900" stroke="#263238" stroke-linecap="round" stroke-linejoin="round"/>
<path opacity="0.4" d="M247.343 80.9993V352.145C247.343 353.476 246.77 354.752 245.752 355.693C244.733 356.634 243.351 357.163 241.91 357.163H101.108C100.395 357.163 99.6884 357.033 99.0293 356.781C98.3703 356.529 97.7714 356.159 97.267 355.693C96.7625 355.227 96.3624 354.674 96.0894 354.065C95.8164 353.456 95.6759 352.804 95.6759 352.145V80.9993C95.6759 80.3407 95.8165 79.6886 96.0896 79.0802C96.3627 78.4718 96.763 77.9192 97.2675 77.4538C97.7721 76.9885 98.371 76.6197 99.03 76.3684C99.689 76.1171 100.395 75.9883 101.108 75.9894H130.009C130.938 75.9888 131.845 76.2504 132.609 76.7394C133.373 77.2283 133.956 77.9211 134.282 78.7251L135.513 81.7739C135.835 82.5787 136.416 83.273 137.179 83.7635C137.941 84.2541 138.847 84.5173 139.776 84.5178H203.233C204.163 84.5178 205.071 84.2549 205.835 83.7644C206.599 83.2739 207.182 82.5793 207.506 81.7739L208.737 78.7251C209.06 77.9211 209.641 77.2279 210.404 76.7388C211.166 76.2496 212.072 75.9881 213.001 75.9894H241.91C243.35 75.9894 244.73 76.517 245.748 77.4563C246.767 78.3956 247.34 79.6698 247.343 80.9993Z" fill="#FF9900"/>
<path d="M247.343 336.349V352.145C247.344 352.804 247.204 353.457 246.932 354.066C246.659 354.676 246.259 355.229 245.754 355.696C245.25 356.162 244.65 356.531 243.991 356.783C243.331 357.035 242.624 357.164 241.91 357.163H101.108C100.395 357.163 99.6884 357.033 99.0293 356.781C98.3703 356.529 97.7714 356.159 97.267 355.693C96.7625 355.227 96.3624 354.674 96.0894 354.065C95.8164 353.456 95.6759 352.804 95.6759 352.145V336.349H247.343Z" fill="#FF9900"/>
<path d="M247.343 81.0075V93.4664H95.7026V81.0075C95.7026 79.6766 96.275 78.4003 97.2937 77.4592C98.3125 76.5181 99.6942 75.9894 101.135 75.9894H130.036C130.965 75.9876 131.873 76.2488 132.637 76.7379C133.401 77.227 133.984 77.9205 134.308 78.7251L135.53 81.7739C135.856 82.5787 136.439 83.2726 137.202 83.7629C137.966 84.2533 138.873 84.5166 139.803 84.5178H203.26C204.19 84.5166 205.097 84.2533 205.861 83.7629C206.624 83.2726 207.208 82.5787 207.533 81.7739L208.755 78.7251C209.08 77.9211 209.664 77.2283 210.427 76.7394C211.191 76.2504 212.098 75.9888 213.027 75.9894H241.91C242.624 75.9883 243.331 76.1174 243.991 76.3692C244.65 76.621 245.25 76.9906 245.754 77.4568C246.259 77.923 246.659 78.4766 246.932 79.0859C247.204 79.6952 247.344 80.3482 247.343 81.0075Z" fill="#FF9900"/>
<path d="M247.343 80.9663V352.112C247.34 353.441 246.767 354.715 245.748 355.655C244.73 356.594 243.35 357.122 241.91 357.122H101.108C100.395 357.123 99.689 356.994 99.03 356.743C98.371 356.491 97.7721 356.123 97.2675 355.657C96.763 355.192 96.3627 354.639 96.0896 354.031C95.8165 353.422 95.6759 352.77 95.6759 352.112V80.9663C95.6759 80.3073 95.8164 79.6547 96.0894 79.0459C96.3624 78.4371 96.7625 77.8839 97.267 77.4179C97.7714 76.9519 98.3703 76.5823 99.0293 76.3301C99.6884 76.0779 100.395 75.9481 101.108 75.9481H130.009C130.939 75.9481 131.847 76.211 132.611 76.7015C133.375 77.192 133.958 77.8866 134.282 78.692L135.513 81.7326C135.835 82.5374 136.416 83.2317 137.179 83.7223C137.941 84.2128 138.847 84.476 139.776 84.4765H203.233C204.163 84.4765 205.071 84.2136 205.835 83.7232C206.599 83.2327 207.182 82.5381 207.506 81.7326L208.728 78.692C209.05 77.8872 209.632 77.1929 210.394 76.7024C211.156 76.2118 212.063 75.9486 212.992 75.9481H241.91C243.351 75.9481 244.733 76.4768 245.752 77.4179C246.77 78.359 247.343 79.6354 247.343 80.9663Z" stroke="#263238" stroke-linecap="round" stroke-linejoin="round"/>
<path d="M203.421 248.247H139.589C133.643 248.247 128.823 252.699 128.823 258.192V262.172C128.823 267.665 133.643 272.118 139.589 272.118H203.421C209.367 272.118 214.187 267.665 214.187 262.172V258.192C214.187 252.699 209.367 248.247 203.421 248.247Z" fill="#263238"/>
<path d="M150.356 257.302V258.777C150.356 260.598 149.401 261.587 147.474 261.587H146.582V265.855H144.647V254.492H147.501C149.401 254.492 150.356 255.481 150.356 257.302ZM146.556 256.116V259.964H147.448C148.063 259.964 148.393 259.7 148.393 258.893V257.187C148.393 256.363 148.063 256.116 147.448 256.116H146.556Z" fill="white"/>
<path d="M153.094 254.492V263.26C153.094 264.084 153.478 264.364 154.093 264.364C154.708 264.364 155.101 264.067 155.101 263.26V254.492H156.93V263.144C156.93 264.965 155.939 266.004 154.039 266.004C152.14 266.004 151.158 264.965 151.158 263.144V254.492H153.094Z" fill="white"/>
<path d="M162.291 265.855C162.128 265.405 162.067 264.928 162.112 264.455V262.675C162.112 261.62 161.729 261.224 160.845 261.224H160.176V265.855H158.25V254.492H161.167C163.165 254.492 164.03 255.316 164.03 257.104V257.994C164.098 258.45 164.012 258.914 163.786 259.324C163.56 259.733 163.203 260.069 162.763 260.285C163.727 260.656 164.048 261.505 164.048 262.691V264.504C164.014 264.974 164.083 265.445 164.253 265.888L162.291 265.855ZM160.176 256.116V259.601H160.935C161.657 259.601 162.094 259.313 162.094 258.406V257.286C162.094 256.462 161.791 256.116 161.113 256.116H160.176Z" fill="white"/>
<path d="M170.916 261.62V263.128C170.916 264.941 169.935 265.987 168.035 265.987C166.135 265.987 165.154 264.941 165.154 263.128V257.22C165.154 255.399 166.135 254.361 168.035 254.361C169.935 254.361 170.916 255.399 170.916 257.22V258.324H169.088V257.088C169.088 256.264 168.704 255.967 168.088 255.967C167.473 255.967 167.081 256.281 167.081 257.088V263.227C167.081 264.051 167.473 264.331 168.088 264.331C168.704 264.331 169.088 264.034 169.088 263.227V261.579L170.916 261.62Z" fill="white"/>
<path d="M174.029 265.855H172.094V254.492H174.029V259.362H176.223V254.492H178.195V265.855H176.223V260.986H174.029V265.855Z" fill="white"/>
<path d="M185.857 265.855H183.904L183.574 263.795H181.201L180.862 265.855H179.078L181.076 254.492H183.904L185.857 265.855ZM181.397 262.254H183.261L182.369 256.486L181.397 262.254Z" fill="white"/>
<path d="M189.354 254.361C191.236 254.361 192.199 255.399 192.199 257.22V257.574H190.371V257.088C190.371 256.264 190.023 255.967 189.407 255.967C188.792 255.967 188.435 256.281 188.435 257.088C188.435 257.896 188.827 258.53 190.094 259.56C191.709 260.878 192.217 261.818 192.217 263.12C192.217 264.933 191.236 265.979 189.336 265.979C187.436 265.979 186.455 264.933 186.455 263.12V262.419H188.283V263.243C188.283 264.067 188.667 264.347 189.282 264.347C189.898 264.347 190.281 264.051 190.281 263.243C190.281 262.436 189.898 261.793 188.631 260.771C187.017 259.461 186.508 258.514 186.508 257.22C186.508 255.44 187.472 254.361 189.354 254.361Z" fill="white"/>
<path d="M195.259 259.28H197.935V260.928H195.259V264.224H198.595V265.872H193.323V254.492H198.595V256.14H195.259V259.28Z" fill="white"/>
<path d="M189.363 208.991H153.683L154.575 208.653C156.676 207.858 158.475 206.505 159.745 204.766C161.015 203.026 161.699 200.979 161.711 198.881V186.735H181.335V198.807C181.333 200.917 182.01 202.979 183.281 204.733C184.552 206.486 186.358 207.851 188.471 208.653L189.363 208.991Z" fill="white"/>
<mask id="mask3_35_2550" style="mask-type:luminance" maskUnits="userSpaceOnUse" x="153" y="186" width="37" height="23">
<path d="M189.363 208.991H153.683L154.575 208.653C156.676 207.858 158.475 206.505 159.745 204.766C161.015 203.026 161.699 200.979 161.711 198.881V186.735H181.335V198.807C181.333 200.917 182.01 202.979 183.281 204.733C184.552 206.486 186.358 207.851 188.471 208.653L189.363 208.991Z" fill="white"/>
</mask>
<g mask="url(#mask3_35_2550)">
<path opacity="0.3" d="M181.308 186.735V197.29C174.845 198.453 168.267 198.986 161.684 198.881V186.735H181.308Z" fill="black" fill-opacity="0.7"/>
</g>
<path d="M189.363 208.991H153.683L154.575 208.653C156.676 207.858 158.475 206.505 159.745 204.766C161.015 203.026 161.699 200.979 161.711 198.881V186.735H181.335V198.807C181.333 200.917 182.01 202.979 183.281 204.733C184.552 206.486 186.358 207.851 188.471 208.653L189.363 208.991Z" stroke="#263238" stroke-linecap="round" stroke-linejoin="round"/>
<path d="M211.404 134.6H131.606C130.128 134.6 128.93 135.707 128.93 137.072V190.781C128.93 192.146 130.128 193.253 131.606 193.253H211.404C212.882 193.253 214.08 192.146 214.08 190.781V137.072C214.08 135.707 212.882 134.6 211.404 134.6Z" fill="white" stroke="#263238" stroke-linecap="round" stroke-linejoin="round"/>
<path d="M210.69 139.042H132.319V188.811H210.69V139.042Z" fill="#BFBFBF"/>
<mask id="mask4_35_2550" style="mask-type:luminance" maskUnits="userSpaceOnUse" x="132" y="139" width="79" height="50">
<path d="M210.69 139.042H132.319V188.811H210.69V139.042Z" fill="white"/>
</mask>
<g mask="url(#mask4_35_2550)">
<path opacity="0.4" d="M186.758 139.042C186.758 139.042 167.259 173.048 132.346 177.267V139.042H186.758Z" fill="white"/>
<path opacity="0.4" d="M210.69 156.626V188.811H172.959C178.73 171.293 198.185 161.38 210.69 156.626Z" fill="white"/>
</g>
<path d="M210.69 139.042H132.319V188.811H210.69V139.042Z" stroke="#263238" stroke-linecap="round" stroke-linejoin="round"/>
<path d="M153.477 206.939H189.532C190.005 206.939 190.459 207.113 190.794 207.422C191.128 207.731 191.316 208.15 191.316 208.587V211.653H151.738V208.587C151.738 208.157 151.92 207.744 152.245 207.436C152.57 207.129 153.012 206.95 153.477 206.939Z" fill="white" stroke="#263238" stroke-linecap="round" stroke-linejoin="round"/>
<path d="M139.17 221.631H121.374V238.07H139.17V221.631Z" fill="#BFBFBF" stroke="#263238" stroke-linecap="round" stroke-linejoin="round"/>
<path d="M159.793 221.631H141.997V238.07H159.793V221.631Z" fill="#BFBFBF" stroke="#263238" stroke-linecap="round" stroke-linejoin="round"/>
<path d="M180.407 221.631H162.612V238.07H180.407V221.631Z" fill="#BFBFBF" stroke="#263238" stroke-linecap="round" stroke-linejoin="round"/>
<path d="M201.021 221.631H183.226V238.07H201.021V221.631Z" fill="#BFBFBF" stroke="#263238" stroke-linecap="round" stroke-linejoin="round"/>
<path d="M221.644 221.631H203.849V238.07H221.644V221.631Z" fill="#BFBFBF" stroke="#263238" stroke-linecap="round" stroke-linejoin="round"/>
<path d="M225.863 232.31L228.521 229.847L225.863 227.391" stroke="#263238" stroke-linecap="round" stroke-linejoin="round"/>
<path d="M117.155 227.391L114.488 229.847L117.155 232.31" stroke="#263238" stroke-linecap="round" stroke-linejoin="round"/>
<path d="M211.003 123.518L215.008 122.735L217.175 125.948L221.269 126.105L222.5 129.722L226.425 130.818L226.648 134.592L230.145 136.562L229.342 140.27L232.205 142.972L230.43 146.384L232.482 149.663L229.842 152.564L230.939 156.206L227.603 158.406L227.683 162.188L223.865 163.556L222.92 167.239L218.852 167.684L216.952 171.029L212.894 170.527L210.146 173.337L206.355 171.911L202.939 174.004L199.638 171.755L195.776 172.999L193.189 170.057L189.104 170.37L187.391 166.934L183.351 166.3L182.619 162.575L178.873 161.034L179.176 157.26L175.965 154.904L177.258 151.311L174.787 148.295L177.008 145.123L175.43 141.629L178.436 139.058L177.847 135.317L181.451 133.521L181.879 129.755L185.857 128.849L187.293 125.306L191.387 125.339L193.733 122.232L197.694 123.205L200.789 120.733L204.366 122.587L208.041 120.906L211.003 123.518Z" fill="#FF9900" stroke="#263238" stroke-linecap="round" stroke-linejoin="round"/>
<path d="M189.202 147.183L188.667 148.913C188.257 150.248 188.738 150.891 189.755 151.155C190.772 151.418 191.539 151.113 191.949 149.779L193.216 145.659C193.626 144.324 193.145 143.656 192.137 143.393C191.129 143.129 190.353 143.467 189.925 144.793L189.755 145.354L186.758 144.571L190.665 133.9L199.023 136.1L198.202 138.762L192.672 137.311L191.04 141.728H191.102C191.513 141.363 192.026 141.111 192.584 140.998C193.141 140.886 193.721 140.919 194.26 141.094C196.588 141.703 197.31 143.566 196.463 146.277L195.187 150.397C194.295 153.388 192.128 154.665 189.006 153.849C185.884 153.033 184.805 150.899 185.723 147.916L186.196 146.367L189.202 147.183Z" fill="white"/>
<path d="M200.013 141.209C200.905 138.226 203.162 136.974 206.257 137.789C209.352 138.605 210.548 140.756 209.629 143.739L206.641 153.437C205.749 156.42 203.501 157.681 200.397 156.865C197.292 156.049 196.097 153.89 197.016 150.907L200.013 141.209ZM200.147 151.921C199.737 153.256 200.209 153.923 201.217 154.187C202.225 154.451 203.001 154.113 203.429 152.786L206.534 142.717C206.944 141.382 206.462 140.706 205.454 140.443C204.446 140.179 203.67 140.517 203.242 141.852L200.147 151.921Z" fill="white"/>
<path d="M212.769 141.365C212.835 141.149 212.947 140.947 213.097 140.77C213.248 140.594 213.435 140.446 213.648 140.337C213.86 140.227 214.094 140.157 214.336 140.13C214.577 140.104 214.822 140.122 215.057 140.183C215.291 140.244 215.51 140.347 215.701 140.487C215.892 140.626 216.052 140.799 216.171 140.995C216.289 141.191 216.365 141.407 216.394 141.63C216.422 141.854 216.403 142.08 216.337 142.297L215.222 145.848C215.088 146.285 214.772 146.655 214.343 146.877C213.914 147.099 213.407 147.154 212.934 147.03C212.461 146.907 212.06 146.615 211.82 146.219C211.58 145.822 211.52 145.354 211.654 144.917L212.769 141.365ZM212.822 145.304C212.679 145.79 212.822 146.046 213.215 146.128C213.607 146.211 213.884 146.087 214.026 145.609L215.168 141.893C215.32 141.415 215.168 141.151 214.776 141.069C214.383 140.986 214.116 141.069 213.964 141.588L212.822 145.304ZM219.673 141.39L220.761 141.679L212.813 151.286L211.725 150.998L219.673 141.39ZM217.362 146.853C217.496 146.416 217.812 146.046 218.241 145.824C218.67 145.603 219.177 145.547 219.65 145.671C220.124 145.794 220.524 146.086 220.764 146.483C221.004 146.879 221.064 147.347 220.93 147.784L219.833 151.336C219.7 151.773 219.384 152.143 218.954 152.365C218.525 152.587 218.018 152.642 217.545 152.518C217.072 152.395 216.672 152.103 216.431 151.706C216.191 151.31 216.132 150.842 216.265 150.405L217.362 146.853ZM217.416 150.792C217.264 151.27 217.416 151.525 217.808 151.616C218.201 151.707 218.469 151.567 218.62 151.089L219.762 147.381C219.905 146.903 219.762 146.639 219.369 146.557C218.977 146.474 218.7 146.557 218.558 147.084L217.416 150.792Z" fill="white"/>
<path d="M208.558 153.783C208.6 153.571 208.69 153.368 208.821 153.189C208.952 153.01 209.122 152.859 209.32 152.744C209.518 152.629 209.74 152.553 209.972 152.522C210.203 152.49 210.439 152.504 210.665 152.561C210.89 152.618 211.1 152.719 211.282 152.855C211.463 152.992 211.612 153.161 211.718 153.354C211.825 153.546 211.887 153.757 211.9 153.973C211.914 154.189 211.878 154.405 211.796 154.607L210.797 157.903C210.755 158.116 210.666 158.318 210.535 158.497C210.404 158.676 210.234 158.828 210.036 158.943C209.837 159.058 209.616 159.133 209.384 159.165C209.153 159.196 208.917 159.183 208.691 159.125C208.466 159.068 208.255 158.968 208.074 158.831C207.893 158.695 207.744 158.525 207.638 158.332C207.531 158.14 207.469 157.929 207.456 157.713C207.442 157.498 207.478 157.282 207.559 157.079L208.558 153.783ZM208.603 157.384C208.469 157.829 208.603 158.06 208.969 158.15C209.335 158.241 209.575 158.15 209.709 157.672L210.753 154.294C210.887 153.849 210.753 153.618 210.387 153.528C210.021 153.437 209.781 153.528 209.647 154.006L208.603 157.384Z" fill="white"/>
<path d="M213.188 156.379L214.562 156.733L214.285 157.631L212.911 157.269L212.118 159.856L211.056 159.576L212.983 153.313L215.801 154.055L215.525 154.945L213.741 154.492L213.188 156.379Z" fill="white"/>
<path d="M216.488 157.252L217.862 157.615L217.585 158.505L216.212 158.142L215.418 160.729L214.348 160.449L216.274 154.187L219.093 154.928L218.816 155.827L217.032 155.365L216.488 157.252Z" fill="white"/>
<path d="M237.593 283.217H105.417V294.143H237.593V283.217Z" fill="#FF9900"/>
<path d="M209.04 301.32H112.553C111.966 301.32 111.491 301.759 111.491 302.301V302.688C111.491 303.23 111.966 303.669 112.553 303.669H209.04C209.626 303.669 210.102 303.23 210.102 302.688V302.301C210.102 301.759 209.626 301.32 209.04 301.32Z" fill="#FF9900"/>
<path d="M196.195 308.366H112.553C111.966 308.366 111.491 308.805 111.491 309.346V309.733C111.491 310.275 111.966 310.714 112.553 310.714H196.195C196.782 310.714 197.257 310.275 197.257 309.733V309.346C197.257 308.805 196.782 308.366 196.195 308.366Z" fill="#FF9900"/>
<path d="M188.489 317.759H112.767C112.43 317.757 112.108 317.632 111.87 317.411C111.633 317.19 111.5 316.892 111.5 316.581C111.502 316.27 111.638 315.972 111.877 315.753C112.116 315.534 112.439 315.411 112.776 315.411H188.497C188.833 315.411 189.156 315.534 189.393 315.753C189.631 315.973 189.764 316.271 189.764 316.581C189.765 316.736 189.733 316.89 189.669 317.033C189.606 317.177 189.512 317.307 189.393 317.417C189.274 317.526 189.133 317.613 188.978 317.672C188.823 317.731 188.656 317.76 188.489 317.759Z" fill="#FF9900"/>
<path d="M200.477 322.456H112.553C111.966 322.456 111.491 322.895 111.491 323.436V323.824C111.491 324.365 111.966 324.804 112.553 324.804H200.477C201.063 324.804 201.538 324.365 201.538 323.824V323.436C201.538 322.895 201.063 322.456 200.477 322.456Z" fill="#FF9900"/>
<path d="M230.457 301.32H219.637C219.051 301.32 218.576 301.759 218.576 302.301V302.688C218.576 303.23 219.051 303.669 219.637 303.669H230.457C231.043 303.669 231.519 303.23 231.519 302.688V302.301C231.519 301.759 231.043 301.32 230.457 301.32Z" fill="#FF9900"/>
<path d="M230.457 308.366H221.778C221.192 308.366 220.716 308.805 220.716 309.346V309.733C220.716 310.275 221.192 310.714 221.778 310.714H230.457C231.043 310.714 231.519 310.275 231.519 309.733V309.346C231.519 308.805 231.043 308.366 230.457 308.366Z" fill="#FF9900"/>
<path d="M230.457 315.411H218.567C217.98 315.411 217.505 315.85 217.505 316.391V316.779C217.505 317.32 217.98 317.759 218.567 317.759H230.457C231.043 317.759 231.519 317.32 231.519 316.779V316.391C231.519 315.85 231.043 315.411 230.457 315.411Z" fill="#FF9900"/>
<path d="M230.466 322.456H227.139C226.553 322.456 226.077 322.895 226.077 323.436V323.824C226.077 324.365 226.553 324.804 227.139 324.804H230.466C231.052 324.804 231.528 324.365 231.528 323.824V323.436C231.528 322.895 231.052 322.456 230.466 322.456Z" fill="#FF9900"/>
<path d="M222.715 106.494H120.304C118.422 106.494 116.897 107.903 116.897 109.641V110.894C116.897 112.632 118.422 114.042 120.304 114.042H222.715C224.596 114.042 226.122 112.632 226.122 110.894V109.641C226.122 107.903 224.596 106.494 222.715 106.494Z" fill="#FF9900"/>
<path d="M223.74 270.841L207.791 265.04L214.071 279.773L216.551 274.59L219.271 277.111L220.85 275.645L218.13 273.131L223.74 270.841Z" fill="white" stroke="#263238" stroke-linecap="round" stroke-linejoin="round"/>
<path d="M57.0881 336.134C55.0898 339.198 53.7708 342.599 53.2079 346.138" stroke="#263238" stroke-linecap="round" stroke-linejoin="round"/>
<path d="M94.3469 308.876L87.3893 306.083L90.7164 298.988L95.5511 297.522L97.683 301.782L94.3469 308.876Z" fill="#FF9900" stroke="#263238" stroke-linecap="round" stroke-linejoin="round"/>
<path d="M95.551 297.522C97.335 294.448 103.579 288.787 107.87 290.312" stroke="#263238" stroke-linecap="round" stroke-linejoin="round"/>
<path d="M232.527 342.314L237.914 347.25L232.018 352.738L226.943 352.491L226.63 347.802L232.527 342.314Z" fill="#FF9900" stroke="#263238" stroke-linecap="round" stroke-linejoin="round"/>
<path d="M226.943 352.491C226.943 352.491 221.225 359.907 215.043 359.231" stroke="#263238" stroke-linecap="round" stroke-linejoin="round"/>
<path d="M409.062 318.179L405.325 324.277L398.046 320.478L396.967 315.889L401.775 314.372L409.062 318.179Z" fill="#FF9900" stroke="#263238" stroke-linecap="round" stroke-linejoin="round"/>
<path d="M396.94 315.889C396.94 315.889 391.178 316.243 387.859 307.953" stroke="#263238" stroke-linecap="round" stroke-linejoin="round"/>
<path d="M384.452 348.272C384.452 348.272 383.721 342.059 380.634 338.788" stroke="#263238" stroke-linecap="round" stroke-linejoin="round"/>
<path d="M382.713 329.411H326.766V361.102H382.713V329.411Z" fill="#BFBFBF"/>
<mask id="mask5_35_2550" style="mask-type:luminance" maskUnits="userSpaceOnUse" x="326" y="329" width="57" height="33">
<path d="M382.713 329.411H326.766V361.102H382.713V329.411Z" fill="white"/>
</mask>
<g mask="url(#mask5_35_2550)">
<path opacity="0.2" d="M335.686 329.411L359.423 336.39V361.11H382.722V329.411H335.686Z" fill="black" fill-opacity="0.7"/>
<path opacity="0.2" d="M382.713 328.974H359.2V361.11H382.713V328.974Z" fill="black" fill-opacity="0.7"/>
</g>
<path d="M382.713 329.411H326.766V361.102H382.713V329.411Z" stroke="#263238" stroke-linecap="round" stroke-linejoin="round"/>
<path d="M346.828 344.325L345.49 345.907L359.423 361.11" stroke="#263238" stroke-linecap="round" stroke-linejoin="round"/>
<path d="M359.423 353.966V329.411L348.317 342.553" stroke="#263238" stroke-linecap="round" stroke-linejoin="round"/>
<path d="M359.431 357.072V358.984" stroke="#263238" stroke-linecap="round" stroke-linejoin="round"/>
<path d="M329.612 357.361L326.766 361.102" stroke="#263238" stroke-linecap="round" stroke-linejoin="round"/>
<path d="M336.275 342.99L338.309 345.907L330.932 355.622" stroke="#263238" stroke-linecap="round" stroke-linejoin="round"/>
<path d="M331.2 335.739L334.875 340.996" stroke="#263238" stroke-linecap="round" stroke-linejoin="round"/>
<path d="M326.766 329.411L329.121 332.781" stroke="#263238" stroke-linecap="round" stroke-linejoin="round"/>
<path d="M391.633 305.531H335.686V330.498H391.633V305.531Z" fill="#999999"/>
<mask id="mask6_35_2550" style="mask-type:luminance" maskUnits="userSpaceOnUse" x="335" y="305" width="57" height="26">
<path d="M391.633 305.531H335.686V330.498H391.633V305.531Z" fill="white"/>
</mask>
<g mask="url(#mask6_35_2550)">
<path opacity="0.2" d="M391.642 305.531H368.351V330.498H391.642V305.531Z" fill="black" fill-opacity="0.7"/>
</g>
<path d="M391.633 305.531H335.686V330.498H391.633V305.531Z" stroke="#263238" stroke-linecap="round" stroke-linejoin="round"/>
<path d="M355.747 318.748L354.409 317.504L368.342 305.531" stroke="#263238" stroke-linecap="round" stroke-linejoin="round"/>
<path d="M368.342 311.159V330.506L357.237 320.149" stroke="#263238" stroke-linecap="round" stroke-linejoin="round"/>
<path d="M368.351 308.712V307.204" stroke="#263238" stroke-linecap="round" stroke-linejoin="round"/>
<path d="M338.532 308.481L335.686 305.531" stroke="#263238" stroke-linecap="round" stroke-linejoin="round"/>
<path d="M345.195 319.803L347.229 317.504L339.852 309.849" stroke="#263238" stroke-linecap="round" stroke-linejoin="round"/>
<path d="M340.12 325.521L343.795 321.376" stroke="#263238" stroke-linecap="round" stroke-linejoin="round"/>
<path d="M335.686 330.506L338.041 327.853" stroke="#263238" stroke-linecap="round" stroke-linejoin="round"/>
<path d="M130.616 290.312H107.87V361.242H130.616V290.312Z" fill="#263238"/>
<path d="M119.805 320.635C117.931 333.704 115.817 349.994 115.817 361.242H104.819V290.048C104.819 289.36 105.115 288.699 105.642 288.213C106.169 287.726 106.884 287.452 107.629 287.452H121.009C121.009 287.452 121.687 307.566 119.805 320.635Z" fill="#BFBFBF"/>
<mask id="mask7_35_2550" style="mask-type:luminance" maskUnits="userSpaceOnUse" x="104" y="287" width="18" height="75">
<path d="M119.805 320.635C117.931 333.704 115.817 349.994 115.817 361.242H104.819V290.048C104.819 289.36 105.115 288.699 105.642 288.213C106.169 287.726 106.884 287.452 107.629 287.452H121.009C121.009 287.452 121.687 307.566 119.805 320.635Z" fill="white"/>
</mask>
<g mask="url(#mask7_35_2550)">
<path opacity="0.2" d="M112.954 287.42V361.242H104.819V290.048C104.819 289.36 105.115 288.7 105.642 288.213C106.169 287.726 106.884 287.453 107.629 287.453L112.954 287.42Z" fill="black"/>
</g>
<path d="M119.805 320.635C117.931 333.704 115.817 349.994 115.817 361.242H104.819V290.048C104.819 289.36 105.115 288.699 105.642 288.213C106.169 287.726 106.884 287.452 107.629 287.452H121.009C121.009 287.452 121.687 307.566 119.805 320.635Z" stroke="#263238" stroke-linecap="round" stroke-linejoin="round"/>
<path d="M112.954 289.208V358.827" stroke="#263238" stroke-linecap="round" stroke-linejoin="round"/>
<path d="M132.694 361.25V290.048C132.694 289.36 132.398 288.699 131.871 288.213C131.344 287.726 130.629 287.452 129.884 287.452H125.424C125.424 287.452 124.702 307.599 126.575 320.668C128.448 333.736 130.571 350.027 130.571 361.275L132.694 361.25Z" fill="#BFBFBF" stroke="#263238" stroke-linecap="round" stroke-linejoin="round"/>
<path d="M116.959 315.04C117.17 315.04 117.372 314.963 117.52 314.825C117.669 314.688 117.753 314.501 117.753 314.307V293.122C117.753 292.927 117.669 292.741 117.52 292.603C117.372 292.465 117.17 292.388 116.959 292.388C116.748 292.388 116.547 292.465 116.398 292.603C116.249 292.741 116.165 292.927 116.165 293.122V314.307C116.165 314.501 116.249 314.688 116.398 314.825C116.547 314.963 116.748 315.04 116.959 315.04Z" fill="#263238"/>
<path d="M200.165 358.778H149.258C148.84 358.756 148.441 358.611 148.119 358.363C147.798 358.115 147.572 357.778 147.474 357.402L140.124 326.304C140.07 326.142 140.059 325.97 140.091 325.803C140.123 325.636 140.199 325.478 140.31 325.343C140.422 325.209 140.567 325.101 140.734 325.028C140.9 324.956 141.082 324.922 141.266 324.928H192.173C192.59 324.952 192.988 325.098 193.309 325.346C193.63 325.593 193.857 325.929 193.957 326.304L201.298 357.385C201.355 357.548 201.369 357.721 201.339 357.889C201.309 358.058 201.235 358.217 201.124 358.354C201.013 358.491 200.867 358.601 200.7 358.674C200.534 358.748 200.35 358.784 200.165 358.778Z" fill="#BFBFBF" stroke="#263238" stroke-linecap="round" stroke-linejoin="round"/>
<path d="M201.057 358.778H150.15C149.732 358.756 149.333 358.611 149.011 358.363C148.69 358.115 148.464 357.778 148.366 357.402L141.016 326.304C140.962 326.142 140.951 325.97 140.983 325.803C141.015 325.636 141.091 325.478 141.202 325.343C141.314 325.209 141.459 325.101 141.626 325.028C141.792 324.956 141.974 324.922 142.158 324.928H193.064C193.482 324.952 193.88 325.098 194.201 325.346C194.522 325.593 194.749 325.929 194.848 326.304L202.19 357.385C202.247 357.548 202.261 357.721 202.231 357.889C202.201 358.058 202.127 358.217 202.016 358.354C201.905 358.491 201.759 358.601 201.592 358.674C201.425 358.748 201.242 358.784 201.057 358.778Z" fill="#263238"/>
<path d="M200.129 355.515H149.544L147.287 345.973L142.952 327.631H193.537L200.129 355.515Z" fill="#BFBFBF"/>
<path d="M224.32 358.555V359.931L212.037 360.912H150.614C150.279 360.91 149.958 360.786 149.721 360.567C149.484 360.348 149.35 360.052 149.348 359.742V358.564L224.32 358.555Z" fill="#BFBFBF" stroke="#263238" stroke-linecap="round" stroke-linejoin="round"/>
<path d="M177.936 358.555V359.931L165.653 360.912H150.614C150.279 360.91 149.958 360.786 149.721 360.567C149.484 360.348 149.35 360.052 149.348 359.742V358.564L177.936 358.555Z" fill="#999999" stroke="#263238" stroke-linecap="round" stroke-linejoin="round"/>
<path opacity="0.4" d="M180.496 327.631C175.831 334.223 166.224 343.006 147.287 345.973L142.952 327.631H180.496Z" fill="white"/>
<path d="M55.3129 361.11H111.259V336.143H55.3129V361.11Z" fill="#757575"/>
<mask id="mask8_35_2550" style="mask-type:luminance" maskUnits="userSpaceOnUse" x="55" y="336" width="57" height="26">
<path d="M55.313 361.11H111.259V336.143H55.313V361.11Z" fill="white"/>
</mask>
<g mask="url(#mask8_35_2550)">
<path opacity="0.2" d="M55.3041 361.11H78.5942V336.143H55.3041V361.11Z" fill="black"/>
</g>
<path d="M55.3129 361.11H111.259V336.143H55.3129V361.11Z" stroke="#263238" stroke-linecap="round" stroke-linejoin="round"/>
<path d="M91.1981 347.885L92.5361 349.129L78.5941 361.11" stroke="#263238" stroke-linecap="round" stroke-linejoin="round"/>
<path d="M78.5941 355.482V336.134L89.6995 346.492" stroke="#263238" stroke-linecap="round" stroke-linejoin="round"/>
<path d="M78.5941 357.929V359.437" stroke="#263238" stroke-linecap="round" stroke-linejoin="round"/>
<path d="M108.414 358.16L111.259 361.11" stroke="#263238" stroke-linecap="round" stroke-linejoin="round"/>
<path d="M101.75 346.838L99.7078 349.129L107.094 356.792" stroke="#263238" stroke-linecap="round" stroke-linejoin="round"/>
<path d="M106.826 341.12L103.151 345.264" stroke="#263238" stroke-linecap="round" stroke-linejoin="round"/>
<path d="M111.259 336.134L108.895 338.788" stroke="#263238" stroke-linecap="round" stroke-linejoin="round"/>
<path d="M94.5967 335.953C94.4583 335.936 94.3213 335.912 94.1863 335.879C92.4023 335.459 90.7254 333.456 89.3784 332.154C88.3705 331.174 78.7904 331.174 77.7824 332.154C76.4355 333.456 74.7229 335.45 72.9746 335.879C72.8396 335.912 72.7026 335.936 72.5643 335.953C69.1747 336.283 74.2145 324.623 75.8557 323.873C77.497 323.123 79.62 323.206 79.8697 324.162H87.2912C87.5409 323.206 89.655 323.132 91.3052 323.873C92.9554 324.615 97.9863 336.283 94.5967 335.953Z" fill="#BFBFBF" stroke="#263238" stroke-linecap="round" stroke-linejoin="round"/>
<path d="M94.1864 335.879C92.4024 335.459 90.7254 333.456 89.3785 332.154C88.3705 331.174 78.7904 331.174 77.7825 332.154C76.4356 333.456 74.7229 335.45 72.9746 335.879C74.5534 334.486 76.4713 330.803 77.3633 329.855C78.4604 328.677 78.9867 329.328 78.9867 329.328H88.1743C88.1743 329.328 88.7006 328.677 89.8067 329.855C90.6897 330.803 92.6075 334.486 94.1864 335.879Z" fill="#263238"/>
<path d="M392.177 357.171L385.085 359.66L382.106 352.441L384.452 348.272L389.197 349.945L392.177 357.171Z" fill="#FF9900" stroke="#263238" stroke-linecap="round" stroke-linejoin="round"/>
<path d="M55.313 357.089L47.8558 355.811L49.3812 348.214L53.7252 345.775L56.8383 349.491L55.313 357.089Z" fill="#FF9900" stroke="#263238" stroke-linecap="round" stroke-linejoin="round"/>
</svg>
