<svg width="65" height="61" viewBox="0 0 65 61" fill="none" xmlns="http://www.w3.org/2000/svg">
<path d="M48.75 7.625H16.25C14.0951 7.625 12.0285 8.42835 10.5048 9.85831C8.98102 11.2883 8.125 13.2277 8.125 15.25V45.75C8.125 47.7723 8.98102 49.7117 10.5048 51.1417C12.0285 52.5717 14.0951 53.375 16.25 53.375H48.75C50.9049 53.375 52.9715 52.5717 54.4952 51.1417C56.019 49.7117 56.875 47.7723 56.875 45.75V15.25C56.875 13.2277 56.019 11.2883 54.4952 9.85831C52.9715 8.42835 50.9049 7.625 48.75 7.625ZM51.4583 45.75C51.4583 46.4241 51.173 47.0706 50.6651 47.5472C50.1572 48.0239 49.4683 48.2917 48.75 48.2917H16.25C15.5317 48.2917 14.8428 48.0239 14.3349 47.5472C13.827 47.0706 13.5417 46.4241 13.5417 45.75V15.25C13.5417 14.5759 13.827 13.9294 14.3349 13.4528C14.8428 12.9761 15.5317 12.7083 16.25 12.7083H48.75C49.4683 12.7083 50.1572 12.9761 50.6651 13.4528C51.173 13.9294 51.4583 14.5759 51.4583 15.25V45.75Z" fill="#FF9900"/>
<path d="M39.8125 21.3245L29.575 34.0328L25.1604 28.6699C24.7186 28.1373 24.0696 27.7913 23.356 27.7079C22.6423 27.6245 21.9226 27.8105 21.3552 28.2251C20.7877 28.6397 20.419 29.2488 20.3301 29.9185C20.2412 30.5882 20.4395 31.2636 20.8812 31.7961L27.4625 39.7007C27.7175 40.0036 28.0428 40.248 28.4135 40.4154C28.7842 40.5827 29.1907 40.6686 29.6021 40.6665C30.0157 40.6656 30.4236 40.5758 30.7944 40.404C31.1653 40.2321 31.4893 39.9829 31.7417 39.6753L44.1187 24.4253C44.5569 23.886 44.7488 23.2055 44.6523 22.5334C44.5558 21.8613 44.1788 21.2527 43.6042 20.8415C43.0295 20.4303 42.3044 20.2502 41.5882 20.3408C40.872 20.4313 40.2236 20.7852 39.7854 21.3245H39.8125Z" fill="#FF9900"/>
</svg>
