<svg width="65" height="64" viewBox="0 0 65 64" fill="none" xmlns="http://www.w3.org/2000/svg">
<g clip-path="url(#clip0_127_660)">
<path d="M51.4584 31.984L41.9143 22.792C36.6032 17.5627 36.6032 9.104 41.8818 3.904C44.4412 1.38667 47.8428 0 51.4584 0C55.0741 0 58.4757 1.38667 61.0324 3.904C63.5918 6.42133 65.0001 9.77067 65.0001 13.3333C65.0001 16.896 63.5918 20.2427 61.0324 22.7627L51.4584 31.984ZM51.4584 8C50.0122 8 48.6499 8.55467 47.6262 9.56267C45.5164 11.64 45.5164 15.024 47.6262 17.104L51.4584 20.792L55.3205 17.072C56.3118 16.096 56.8751 14.7573 56.8751 13.3333C56.8751 11.9093 56.3118 10.568 55.288 9.56C54.2643 8.55467 52.9047 8 51.4584 8ZM13.5418 63.984L3.99761 54.792C-1.31343 49.5627 -1.31343 41.104 3.96511 35.904C6.52448 33.3867 9.92615 32 13.5418 32C17.1574 32 20.5591 33.3867 23.1157 35.904C25.6751 38.4213 27.0834 41.7707 27.0834 45.3333C27.0834 48.896 25.6751 52.2427 23.1157 54.7627L13.5418 63.984ZM13.5418 40C12.0955 40 10.7332 40.5547 9.70948 41.5627C7.59969 43.64 7.59969 47.024 9.70948 49.104L13.5418 52.792L17.4039 49.072C18.3951 48.096 18.9584 46.7573 18.9584 45.3333C18.9584 43.9093 18.3951 42.568 17.3714 41.56C16.3476 40.5547 14.988 40 13.5418 40ZM52.8126 40H41.9793C39.7395 40 37.9168 38.2053 37.9168 36C37.9168 33.7947 39.7395 32 41.9793 32H43.7289L38.1253 26.6053C37.6622 26.1493 37.2289 25.6773 36.8226 25.1893C32.6328 27.128 29.7891 31.2987 29.7891 36.0027C29.7891 42.6187 35.2572 48.0027 41.9766 48.0027H52.8099C55.0497 48.0027 56.8724 49.7973 56.8724 52.0027C56.8724 54.208 55.0497 56.0027 52.8099 56.0027H29.0984C28.462 56.8987 27.747 57.7467 26.948 58.536L21.2714 64.0027H52.8126C59.532 64.0027 65.0001 58.6187 65.0001 52.0027C65.0001 45.3867 59.532 40.0027 52.8126 40.0027V40Z" fill="#FF9900"/>
</g>
<defs>
<clipPath id="clip0_127_660">
<rect width="65" height="64" fill="white"/>
</clipPath>
</defs>
</svg>
