<svg width="86" height="71" viewBox="0 0 86 71" fill="none" xmlns="http://www.w3.org/2000/svg">
<g clip-path="url(#clip0_106_941)">
<path d="M68.7999 20.7084H67.4024C67.8318 19.7615 68.0621 18.761 68.0833 17.7501C68.0081 15.3437 66.7826 13.0597 64.6744 11.3968C62.5663 9.73398 59.7467 8.82739 56.8316 8.87508C53.9668 8.92616 51.1714 9.61216 48.738 10.8613C46.3046 12.1104 44.3227 13.8766 42.9999 15.9751C41.6771 13.8766 39.6952 12.1104 37.2618 10.8613C34.8284 9.61216 32.033 8.92616 29.1683 8.87508C26.2531 8.82739 23.4336 9.73398 21.3254 11.3968C19.2172 13.0597 17.9917 15.3437 17.9166 17.7501C17.9378 18.761 18.168 19.7615 18.5974 20.7084H17.1999C16.257 20.7823 15.3412 21.0098 14.5054 21.3778C13.6696 21.7457 12.9305 22.2467 12.3307 22.8519C11.7309 23.4571 11.2824 24.1545 11.011 24.9037C10.7397 25.6529 10.651 26.4391 10.7499 27.2167V37.8667C10.5825 39.2993 11.0286 40.7349 12.0107 41.924C12.9927 43.1131 14.4485 43.9804 16.1249 44.3751V57.303C16.2355 58.6448 16.9743 59.8985 18.1849 60.7985C19.3954 61.6985 20.9827 62.1743 22.6107 62.1251H63.3891C65.0405 62.1732 66.6483 61.6813 67.8628 60.7562C69.0773 59.831 69.8004 58.5475 69.8749 57.1847V44.3751C71.5513 43.9804 73.0071 43.1131 73.9892 41.924C74.9712 40.7349 75.4173 39.2993 75.2499 37.8667V27.2167C75.3489 26.4391 75.2601 25.6529 74.9888 24.9037C74.7175 24.1545 74.269 23.4571 73.6692 22.8519C73.0694 22.2467 72.3302 21.7457 71.4945 21.3778C70.6587 21.0098 69.7429 20.7823 68.7999 20.7084ZM68.0833 27.2167V37.8667C68.1263 38.0624 68.1263 38.2628 68.0833 38.4584H46.5832V26.6251H68.0833C68.1263 26.8207 68.1263 27.0211 68.0833 27.2167ZM56.8316 14.7917C57.8467 14.7429 58.8443 15.0259 59.6088 15.5795C60.3732 16.1331 60.843 16.9128 60.9166 17.7501C60.843 18.5874 60.3732 19.3671 59.6088 19.9207C58.8443 20.4743 57.8467 20.7573 56.8316 20.7084H48.0166C48.6436 19.128 49.808 17.7298 51.371 16.6807C52.934 15.6316 54.8296 14.9759 56.8316 14.7917ZM25.0833 17.7501C25.1568 16.9128 25.6266 16.1331 26.3911 15.5795C27.1555 15.0259 28.1531 14.7429 29.1683 14.7917C31.1639 14.9813 33.0517 15.6394 34.6078 16.6882C36.1639 17.7369 37.323 19.1322 37.9474 20.7084H29.1683C28.1531 20.7573 27.1555 20.4743 26.3911 19.9207C25.6266 19.3671 25.1568 18.5874 25.0833 17.7501ZM17.9166 27.2167C17.8736 27.0211 17.8736 26.8207 17.9166 26.6251H39.4166V38.4584H17.9166C17.8736 38.2628 17.8736 38.0624 17.9166 37.8667V27.2167ZM23.2916 44.3751H39.4166V56.2084H23.2916V44.3751ZM46.5832 56.2084V44.3751H62.7082V56.2084H46.5832Z" fill="#FF9900"/>
</g>
<defs>
<clipPath id="clip0_106_941">
<rect width="86" height="71" fill="white"/>
</clipPath>
</defs>
</svg>
