<svg width="69" height="63" viewBox="0 0 69 63" fill="none" xmlns="http://www.w3.org/2000/svg">
<g clip-path="url(#clip0_127_646)">
<path d="M51.75 13.1251H5.75V10.9831C5.75201 9.50457 6.20881 8.05627 7.06834 6.80321C7.92787 5.55014 9.15559 4.54268 10.6116 3.89561C20.0531 -1.09189 37.4584 -1.07614 46.8855 3.89561C48.3417 4.54281 49.5696 5.55022 50.4296 6.8032C51.2896 8.05619 51.7471 9.50442 51.75 10.9831V13.1251ZM5.75 36.7501V49.8751H11.5V55.1251H17.25V44.6251C17.5289 41.9444 18.1454 39.3019 19.0871 36.7501H5.75ZM69 47.2501V57.7501H63.25V63.0001H51.75V57.7501H40.25V63.0001H28.75V57.7501H23V47.2501C23.0058 45.4887 23.1877 43.7314 23.5434 42.0001H68.4566C68.8123 43.7314 68.9942 45.4887 69 47.2501ZM34.5173 47.2501C33.7548 47.2501 33.0235 47.5267 32.4843 48.0189C31.9452 48.5112 31.6422 49.1789 31.6422 49.8751C31.6422 50.5713 31.9452 51.239 32.4843 51.7313C33.0235 52.2235 33.7548 52.5001 34.5173 52.5001C35.2797 52.5001 36.011 52.2235 36.5502 51.7313C37.0894 51.239 37.3923 50.5713 37.3923 49.8751C37.3923 49.1789 37.0894 48.5112 36.5502 48.0189C36.011 47.5267 35.2797 47.2501 34.5173 47.2501ZM57.5173 47.2501C56.7548 47.2501 56.0235 47.5267 55.4843 48.0189C54.9451 48.5112 54.6423 49.1789 54.6423 49.8751C54.6423 50.5713 54.9451 51.239 55.4843 51.7313C56.0235 52.2235 56.7548 52.5001 57.5173 52.5001C58.2798 52.5001 59.011 52.2235 59.5502 51.7313C60.0893 51.239 60.3923 50.5713 60.3923 49.8751C60.3923 49.1789 60.0893 48.5112 59.5502 48.0189C59.011 47.5267 58.2798 47.2501 57.5173 47.2501ZM28.934 28.4709L25.4322 36.1437C25.3431 36.3432 25.2799 36.5506 25.1936 36.7501H66.8064C66.7201 36.5506 66.6569 36.3432 66.5677 36.1437L63.066 28.4735C62.4144 27.0362 61.3098 25.808 59.8924 24.9448C58.4751 24.0816 56.8088 23.6223 55.1051 23.6251H36.8949C35.1916 23.6224 33.5257 24.0815 32.1085 24.9442C30.6912 25.8068 29.5864 27.0343 28.934 28.4709ZM23.6268 26.4522C24.714 24.0578 26.5554 22.012 28.9175 20.5741C31.2795 19.1361 34.0559 18.3708 36.8949 18.3751H5.75V21.0001H0V26.2501C0 27.6425 0.605802 28.9779 1.68414 29.9624C2.76247 30.947 4.22501 31.5001 5.75 31.5001H21.3239L23.6268 26.4522Z" fill="#FF9900"/>
</g>
<defs>
<clipPath id="clip0_127_646">
<rect width="69" height="63" fill="white"/>
</clipPath>
</defs>
</svg>
